<svg width="13" height="13" viewBox="0 0 13 13" fill="none" xmlns="http://www.w3.org/2000/svg">
<path fill-rule="evenodd" clip-rule="evenodd" d="M1.875 0H3.125C3.47018 0 3.75 0.279822 3.75 0.625C3.75 0.945522 3.50872 1.20969 3.19789 1.2458L3.125 1.25H1.875C1.55448 1.25 1.29031 1.49128 1.2542 1.80211L1.25 1.875V10.625C1.25 10.9455 1.49128 11.2097 1.80211 11.2458L1.875 11.25H10.625C10.9455 11.25 11.2097 11.0087 11.2458 10.6979L11.25 10.625V9.375C11.25 9.02982 11.5298 8.75 11.875 8.75C12.1955 8.75 12.4597 8.99127 12.4958 9.30211L12.5 9.375V10.625C12.5 11.6236 11.7194 12.4398 10.7352 12.4968L10.625 12.5H1.875C0.876449 12.5 0.0602119 11.7194 0.00318293 10.7352L0 10.625V1.875C0 0.876449 0.780575 0.0602119 1.76483 0.00318293L1.875 0H3.125H1.875ZM11.625 0L11.6756 0.001875L11.7505 0.01265L11.8201 0.0310863L11.8895 0.0585459L11.9504 0.0912472L12.0105 0.132991L12.0669 0.183058L12.1273 0.252933L12.1721 0.322461L12.1915 0.360563L12.2126 0.411469L12.2276 0.458754L12.2457 0.55119L12.25 0.625V4.375C12.25 4.72018 11.9702 5 11.625 5C11.2798 5 11 4.72018 11 4.375V2.13375L7.06694 6.06694C6.84164 6.29224 6.48712 6.30958 6.24194 6.11893L6.18306 6.06694C5.95776 5.84164 5.94042 5.48712 6.13107 5.24194L6.18306 5.18306L10.115 1.25H7.875C7.52982 1.25 7.25 0.970178 7.25 0.625C7.25 0.279822 7.52982 0 7.875 0H11.625Z" fill="black"/>
</svg>
