<svg width="10" height="13" viewBox="0 0 10 13" fill="none" xmlns="http://www.w3.org/2000/svg">
<path fill-rule="evenodd" clip-rule="evenodd" d="M0.614461 5.62509C0.934938 5.61969 1.20314 5.85647 1.24448 6.16665L1.24991 6.23946L1.25218 6.3793C1.32028 8.39511 2.97702 10 5 10C5.11685 10 5.23292 9.99467 5.34797 9.98411L5.18306 9.81694C4.93898 9.57286 4.93898 9.17714 5.18306 8.93306C5.42714 8.68898 5.82286 8.68898 6.06694 8.93306L7.31694 10.1831C7.56102 10.4271 7.56102 10.8229 7.31694 11.0669L6.06694 12.3169C5.82286 12.561 5.42714 12.561 5.18306 12.3169C4.93898 12.0729 4.93898 11.6771 5.18306 11.4331L5.38197 11.2356C5.25538 11.2452 5.12799 11.25 5 11.25C2.35544 11.25 0.18054 9.1934 0.010417 6.56908L0.00262761 6.41095L9.0719e-05 6.26054C-0.00573054 5.91541 0.269333 5.63091 0.614461 5.62509ZM4.81694 0.183058C5.04224 0.408361 5.05957 0.76288 4.86893 1.00806L4.81694 1.06694L4.61823 1.26439C4.74475 1.25482 4.87208 1.25 5 1.25C7.76142 1.25 10 3.48858 10 6.25C10 6.59518 9.72018 6.875 9.375 6.875C9.02982 6.875 8.75 6.59518 8.75 6.25C8.75 4.17893 7.07107 2.5 5 2.5C4.88308 2.5 4.76695 2.50533 4.65184 2.51591L4.81694 2.68306C5.06102 2.92714 5.06102 3.32286 4.81694 3.56694C4.59164 3.79224 4.23712 3.80957 3.99194 3.61893L3.93306 3.56694L2.68306 2.31694C2.45776 2.09164 2.44042 1.73712 2.63107 1.49194L2.68306 1.43306L3.93306 0.183058C4.17714 -0.0610194 4.57286 -0.0610194 4.81694 0.183058Z" fill="#252834"/>
</svg>
